<svg xmlns="http://www.w3.org/2000/svg" width="71.688" height="54.625" viewBox="0 0 71.688 54.625">
  <defs>
    <style>
      .cls-1 {
        fill: #fff;
        fill-rule: evenodd;
      }
    </style>
  </defs>
  <path class="cls-1" d="M56.909,45.078A20.237,20.237,0,0,1,53.5,33.817V22.4A17.5,17.5,0,0,0,38.046,5.018V0.7h-4.2V5.034A17.649,17.649,0,0,0,18.5,22.567v11.25a20.236,20.236,0,0,1-3.409,11.261L11.076,51.1H30.061a6.3,6.3,0,0,0,11.878,0H60.924ZM18.915,46.9A24.417,24.417,0,0,0,22.7,33.817V22.567A13.409,13.409,0,0,1,35.953,9.1H36A13.3,13.3,0,0,1,49.3,22.4V33.817A24.415,24.415,0,0,0,53.085,46.9H18.915ZM65.894,13.645l-2.97,2.97A16.1,16.1,0,0,1,63.1,39.2l3.016,2.923A20.3,20.3,0,0,0,65.894,13.645Zm-5.94,5.94-2.97,2.97a7.7,7.7,0,0,1,.06,10.828l3,2.937A11.9,11.9,0,0,0,59.955,19.585ZM9.076,16.615l-2.97-2.97a20.3,20.3,0,0,0-.223,28.482L8.9,39.2A16.1,16.1,0,0,1,9.076,16.615Zm5.94,5.94-2.97-2.97a11.9,11.9,0,0,0-.093,16.736l3-2.937A7.7,7.7,0,0,1,15.015,22.555Z" transform="translate(-0.156 -0.688)"/>
</svg>
